<svg width="1000" height="1292" viewBox="0 0 1000 1292" fill="none" xmlns="http://www.w3.org/2000/svg">
<path fill-rule="evenodd" clip-rule="evenodd" d="M405.745 0.453106C400.296 1.44059 390.65 4.63143 385.931 7.00781C383.435 8.26472 379.272 11.0056 376.682 13.0989C374.091 15.1914 370.894 17.1835 369.578 17.5261C368.262 17.868 364.107 18.9034 360.346 19.8259C356.585 20.7491 348.738 22.8998 342.908 24.6053C337.078 26.3109 326.923 28.852 320.341 30.2519C309.515 32.5544 307.852 32.7438 302.903 32.235C295.07 31.4302 290.283 31.6162 287.359 32.8403C283.147 34.6039 278.166 39.9318 273.104 48.0922C267.161 57.6688 259.778 67.2879 256.187 70.132C251.375 73.9438 248.19 74.9894 241.356 75.0031C235.913 75.0133 234.291 74.6967 227.337 72.2663C215.229 68.0339 210.17 68.4866 203.786 74.3712C196.382 81.1967 190.432 91.7232 183.902 109.555C177.687 126.524 178.353 125.937 165.212 126.02C153.814 126.091 149.428 127.244 145.334 131.247C139.231 137.214 133.245 149.824 127.226 169.392C120.087 192.603 110.883 200.591 96.1944 196.321C91.2925 194.896 85.9927 195.403 82.1576 197.665C68.2837 205.847 54.673 234.079 47.7271 269.083C46.9195 273.152 46.5988 281.369 46.3294 304.901C45.984 335.022 46.4387 347.443 48.8425 373.522C49.1892 377.283 49.9619 386.207 50.5596 393.353C52.8327 420.525 56.0886 447.233 58.77 460.713C60.0119 466.954 63.546 488.971 64.5881 496.957C65.0053 500.154 65.7678 505.231 66.2821 508.24C66.7963 511.249 67.5663 516.942 67.9924 520.891C69.1344 531.475 72.5317 552.83 74.6298 562.606C75.6385 567.308 76.4824 572.385 76.5056 573.89L76.548 576.625L68.6831 577.408C64.3577 577.838 59.5256 578.539 57.9452 578.964C53.4674 580.17 40.5528 586.069 36.9216 588.567C27.1056 595.32 18.5424 606.473 10.6077 622.837C5.77218 632.808 4.45444 637.576 1.87974 654.403C0.0989961 666.046 -0.0282288 668.286 0.00391215 687.409C0.0394724 707.924 0.0394531 707.925 2.22367 717.708C9.33777 749.569 20.1166 779.12 38.8159 818.025C57.5964 857.098 69.438 875.289 88.473 894.311C97.7775 903.609 102.951 907.428 113.469 912.763C125.914 919.075 137.744 920.524 145.97 916.745C149.758 915.004 152.114 913.187 152.114 912.005C152.114 911.656 149.113 911.367 145.446 911.362C133.97 911.348 127.6 908.817 114.502 899.067C102.821 890.373 94.5101 881.811 83.9583 867.604C71.8931 851.358 70.3483 848.978 63.4927 836.07C57.4379 824.671 55.826 821.344 45.8041 799.561C26.0682 756.666 13.1763 716.456 11.3566 692.125C8.4249 652.913 28.727 602.014 49.9079 595.471C52.2132 594.76 57.9419 593.528 62.6379 592.735L71.1771 591.293L79.3942 592.963C88.1393 594.74 95.1522 597.651 100.93 601.899C103.435 603.741 105.506 606.541 110.657 615.051C114.257 620.998 119.832 629.555 123.047 634.069C126.914 639.496 130.75 646.095 134.381 653.558C137.399 659.764 142.448 669.92 145.6 676.126C151.532 687.805 155.05 696.28 161.495 714.417C167.52 731.377 167.949 731.949 175.427 732.986C181.051 733.765 185.907 732.858 186.994 730.825C187.713 729.483 188.568 724.809 189.995 714.421C191.976 700.01 193.235 685.673 195.189 655.268C195.994 642.74 197.738 629.825 201.009 612.174C205.651 587.122 208.289 579.546 219.343 559.529C228.344 543.23 238.778 528.975 255.837 509.671C282.966 478.971 287.934 471.079 293.638 449.63C296.833 437.618 297.165 434.114 297.766 406.005C298.321 380.039 298.905 372.726 301.598 358.014C302.245 354.481 303.143 351.677 303.819 351.085C305.24 349.838 321.09 345.428 327.898 344.385C334.042 343.444 337.767 344.234 341.054 347.173L343.25 349.136L343.283 362.355C343.314 375.084 343.381 375.715 345.08 379.408C347.118 383.833 349.809 386.137 355.365 388.213C358.976 389.562 359.305 389.865 359.692 392.197C361.026 400.25 365.282 406.605 372.724 411.659C375.402 413.478 379.049 415.269 381.158 415.8C383.599 416.415 385.049 417.183 385.384 418.038C385.665 418.754 385.919 421.955 385.951 425.152C386.045 434.937 388.405 441.189 394.393 447.521C399.26 452.667 405.206 455.427 411.62 455.517C415.769 455.574 417.084 455.269 421.005 453.34C430.852 448.496 439.059 434.672 439.864 421.576C440.154 416.854 439.993 415.89 438.35 412.532C437.184 410.149 435.146 407.608 432.782 405.588C430.731 403.836 428.886 401.735 428.681 400.919C428.476 400.103 428.967 396.22 429.773 392.291C432.992 376.582 429.198 367.046 416.946 360.059C412.925 357.765 409.925 354.583 409.925 352.612C409.925 350.643 412.385 348.561 414.712 348.561C417.757 348.561 429.198 350.632 430.779 351.469C431.533 351.87 433.997 353.866 436.253 355.908C439.34 358.699 443.154 360.983 451.64 365.123C464.587 371.437 467.135 373.138 468.484 376.366C469.368 378.482 469.296 379.311 467.667 385.679C463.174 403.247 465.078 413.844 474.347 422.862C479.663 428.033 484.709 430.927 493.913 434.083C504.708 437.784 505.372 438.478 505.109 445.78C504.722 456.497 507.869 464.896 514.998 472.173C519.613 476.884 527.608 481.206 534.398 482.662C540.853 484.046 551.835 481.784 552.54 478.924C553.172 476.366 551.145 471.47 547.152 465.908C545.019 462.936 542.931 459.243 542.514 457.702C541.172 452.74 542.101 446.723 545.378 439.171C547.735 433.737 548.401 431.326 548.618 427.429C548.861 423.058 548.682 422.14 546.964 418.985C545.114 415.585 541.252 412.206 538.084 411.215C535.733 410.48 533.613 407.682 533.228 404.803C532.977 402.931 533.671 398.968 535.484 391.914C537.681 383.373 538.108 380.578 538.131 374.603C538.149 369.931 538.424 367.389 538.932 367.219C540.338 366.751 552.436 370.516 556.546 372.702C566.321 377.903 568.35 388.258 562.734 404.295C559.607 413.224 559.31 417.816 561.577 422.16C564.672 428.093 568.766 430.218 584.649 434.137C590.667 435.622 596.452 437.175 597.503 437.587C602.462 439.533 603.294 448.462 600.043 464.875C598.172 474.323 597.873 477.127 598.154 482.596C598.733 493.855 602.913 502.669 611.472 510.675C620.185 518.826 631.403 522.366 643.907 520.913C658.445 519.222 663.388 516.608 677.914 502.923C683.272 497.875 687.281 494.739 690.591 493.004C694.179 491.125 697.293 488.596 702.613 483.242C711.067 474.736 713.921 473.28 717.754 475.518C720.738 477.261 721.678 479.012 726.529 491.863C736.627 518.615 742.629 525.904 754.593 525.945C758.183 525.957 759.944 525.54 763.671 523.796C770.513 520.594 774.948 515.818 778.991 507.298C780.798 503.489 782.562 500.469 782.91 500.585C783.258 500.701 785.07 503.546 786.936 506.907C791.522 515.166 796.453 522.374 798.962 524.486C804.727 529.336 812.689 529.639 821.387 525.341C833.636 519.287 841.907 505.953 842.177 491.828C842.374 481.489 843.774 481.512 854.603 492.034C863.623 500.799 868.118 503.684 874.948 505.096C882.359 506.628 890.04 503.835 898.266 496.617C901.048 494.176 905.419 490.457 907.979 488.352C913.031 484.2 915.586 481.035 918.894 474.831C922.616 467.85 923.613 467.723 935.806 472.667C939.756 474.269 943.833 475.778 944.867 476.023C946.559 476.423 946.748 476.763 946.748 479.412C946.748 481.031 946.109 485.872 945.327 490.169C940.74 515.393 936.987 552.568 933.702 605.338C933.327 611.351 932.735 616.557 932.385 616.906C931.993 617.299 928.789 614.679 924.032 610.077C915.404 601.73 905.415 594.604 895.09 589.43C880.926 582.331 871.043 580.64 847.59 581.301C826.182 581.905 814.264 583.425 792.849 588.283C788.882 589.183 783.65 590.523 781.223 591.26C778.797 591.998 775.314 592.817 773.485 593.08C767.986 593.871 763.546 598.72 763.354 604.146C763.159 609.657 764.36 617.383 765.668 619.047C769.048 623.345 777.494 622.614 797.711 616.276C801.846 614.979 808.068 613.461 811.536 612.903C818.323 611.811 839.544 610.294 865.422 609.051C881.134 608.296 881.702 608.316 887.647 609.793C895.389 611.717 902.867 614.204 908.11 616.597C911.697 618.234 922.434 625.714 929.652 631.603L932.045 633.556L931.904 642.615C931.733 653.681 928.647 673.082 925.121 685.273C923.802 689.833 921.654 697.827 920.347 703.038C919.04 708.249 916.583 716.845 914.885 722.143C911.223 733.57 910.451 737.076 907.631 755.089L905.487 768.787L905.283 816.315C905.017 878.347 903.92 900.753 899.584 932.752C898.112 943.613 896.387 952.628 893.773 963.122C889.167 981.617 888.596 983.263 878.768 1006.43C870.813 1025.17 856.759 1052.82 849.834 1063.35C843.231 1073.38 797.628 1131.09 779.983 1151.74C753.06 1183.24 721.338 1215.57 705.841 1227.3C697.326 1233.74 686.996 1240.07 680.926 1242.56C677.621 1243.92 669.565 1247.23 663.024 1249.92C646.736 1256.62 643.074 1257.79 630.467 1260.32L619.525 1262.52L596.189 1262.4C583.354 1262.33 569.814 1261.93 566.1 1261.5C562.386 1261.08 553.827 1260.16 547.081 1259.46L534.815 1258.19L525.198 1253.27C514.11 1247.58 482.5 1229.77 472.608 1223.62C468.907 1221.33 461.059 1216.15 455.169 1212.11C436.169 1199.11 420.63 1188.88 405.515 1179.44C358.595 1150.13 314.094 1119.54 290.566 1100.43C262.194 1077.38 246.923 1060.12 233.83 1036.3C229.004 1027.52 212.989 982.457 207.192 961.345C206.718 959.623 204.581 952.213 202.441 944.879C200.302 937.545 197.621 927.861 196.484 923.361C195.347 918.86 192.931 910.551 191.116 904.897C189.299 899.242 186.532 888.307 184.964 880.597C178.741 849.974 167.93 810.809 164.075 804.927C162.732 802.876 160.608 802.841 160.067 804.86C159.425 807.259 159.59 818.23 160.344 823.153C161.33 829.604 162.692 843.953 165.437 876.836C167.536 901.973 167.856 905.875 168.553 914.789C170.651 941.615 172.144 951.922 176.774 971.549C180.919 989.118 183.692 998.638 189.726 1016C200.213 1046.18 200.67 1047.23 211.489 1066.15C225.207 1090.15 242.661 1110.21 266.658 1129.56C291.544 1149.63 332.954 1178.34 377.1 1206.12C416.468 1230.9 426.662 1237.12 440.357 1244.76C456.079 1253.53 488.163 1269.83 498.484 1274.3C515.381 1281.61 536.783 1287.64 554.902 1290.2C563.165 1291.37 596.292 1292.19 607.734 1291.52C618.034 1290.91 634.813 1288.59 647.221 1286.06C664.508 1282.53 681.541 1274.71 695.433 1263.91C698.442 1261.57 705.058 1256.86 710.136 1253.43C721.862 1245.51 731.26 1238.17 744.059 1226.97C756.237 1216.3 782.663 1190.49 793.066 1179.1C814.336 1155.8 851.07 1105.96 870.171 1074.47C874.05 1068.07 880.21 1058.23 883.86 1052.59C893.223 1038.11 896.344 1032.37 905.595 1012.58C913.727 995.184 915.84 989.53 921.694 969.497C930.184 940.45 937.38 903.113 940.937 869.655C942.595 854.062 942.736 850.175 942.972 813.58C943.218 775.409 943.278 773.898 945.021 761.949C947.169 747.232 948.624 740.721 952.206 729.808C953.687 725.294 955.854 717.755 957.021 713.053C958.187 708.352 960.346 700.41 961.817 695.405C963.288 690.4 965.6 679.783 966.954 671.812C969.016 659.681 969.52 654.646 970.05 640.907C970.919 618.376 971.795 600.605 972.696 587.225C974.274 563.79 975.554 546.134 976.539 534.227C977.097 527.456 977.839 517.455 978.185 512.001C978.532 506.548 979.176 497.623 979.617 492.17C980.4 482.502 980.125 449.682 979.147 435.982L978.724 430.057L984.564 427.27C988.44 425.42 991.12 423.618 992.535 421.911C998.868 414.271 1001.63 401.256 999.027 391.274C997.602 385.802 995.429 382.28 989.167 375.293C983.134 368.56 982.058 366.839 982.672 364.904C982.914 364.141 985.068 361.346 987.458 358.692C994.449 350.93 995.759 346.594 993.575 338.441C990.321 326.295 982.612 314.034 970.378 301.546C947.133 277.818 931.05 261.069 928.846 258.293C923.881 252.04 923.429 249.935 925.214 241.382C926.89 233.344 924.849 227.321 918.272 220.9C912.853 215.609 907.22 213.115 885.482 206.384C880.559 204.86 875.756 203.003 874.807 202.256C871.457 199.622 869.966 194.615 869.493 184.425C869.013 174.055 867.787 170.296 863.778 166.906C858.164 162.157 851.053 160.515 836.067 160.508C825.194 160.501 823.819 160.136 818.935 155.956C815.302 152.846 812.975 148.813 811.225 142.591C809.322 135.83 806.548 129.859 803.916 126.861C798.671 120.888 788.389 116.652 771.065 113.329C748.727 109.044 738.476 104.911 735.443 98.9652C734.382 96.8863 734.241 95.427 734.542 89.6915C734.979 81.4169 734.036 78.4381 728.065 69.2081C719.463 55.91 710.502 50.3954 697.512 50.4063C686.5 50.4152 679.209 53.0959 667.704 61.3678C660.158 66.7927 656.844 68.1823 651.454 68.1823C643.602 68.1823 639.067 64.0293 633.122 51.3952C626.675 37.6935 620.142 29.7397 612.073 25.7672C607.828 23.6767 607.27 23.5755 601.639 23.8716C595.712 24.182 595.644 24.2073 583.666 30.3791C570.78 37.0193 566.053 38.7768 561.084 38.7768C555.596 38.7768 554.227 37.0507 552.482 27.9309C550.69 18.5642 546.461 12.8137 538.796 9.31649C523.157 2.18325 504.379 7.34767 485.41 23.9967C477.058 31.3276 468.169 32.5407 458.429 27.6792C451.83 24.3858 447.616 20.6739 443.004 14.0911C438.386 7.50223 433.502 3.02779 429.24 1.48228C425.542 0.141252 410.987 -0.496079 405.745 0.453106ZM158.61 259.135C177.881 258.557 182.527 258.679 184.646 259.813C186.783 260.957 188.771 262.902 188.284 263.372C188.137 263.515 185.4 263.171 182.203 262.609C176.945 261.683 175.362 261.697 165.615 262.749C153.806 264.026 151.474 263.85 146.13 261.284C141.041 258.841 141.477 258.03 147.498 258.737C150.224 259.057 155.225 259.236 158.61 259.135ZM388.916 546.871C378.73 547.953 366.247 552.176 356.625 557.796C351.378 560.86 334.062 573.685 328.205 578.843C321.64 584.626 319.407 589.046 322.274 590.581C323.193 591.072 324.414 590.838 326.89 589.694C330.426 588.06 339.324 584.673 354.191 579.305C359.081 577.539 368.159 574.723 374.365 573.046C384.449 570.322 386.667 569.96 395.233 569.64C409.081 569.123 422.841 571.217 457.111 579.055C465.574 580.991 482.499 584.662 494.723 587.213C508.802 590.151 519.579 592.794 524.128 594.423C530.844 596.828 531.881 597.006 540.165 597.17L549.021 597.345L551.168 595.192C555.851 590.495 558.183 577.34 555.222 572.327C552.94 568.465 547.943 565.673 538.831 563.171C536.198 562.448 532.447 561.267 530.496 560.547C525.549 558.721 518.469 557.006 502.587 553.785C485.664 550.354 482.783 549.926 465.317 548.264C449.462 546.755 398.716 545.829 388.916 546.871ZM716.028 629.037C714.608 629.871 704.77 649.847 701.257 659.029C696.615 671.159 694.251 680.972 691.374 700.06C690.517 705.744 688.899 722.158 687.632 738.014C686.881 747.417 685.871 760.034 685.388 766.052C684.203 780.831 684.421 812.751 685.787 824.179C686.931 833.755 687.947 838.671 692.285 855.636C694.162 862.974 695.081 868.042 695.077 871.023C695.073 873.468 695.435 881.21 695.881 888.229C696.622 899.892 696.589 901.256 695.505 904.096C693.157 910.245 687.613 913.108 676.627 913.846C670.442 914.261 662.159 912.751 643.95 907.887C630.283 904.236 615.453 902.985 604.017 904.519C594.752 905.763 579.675 906.425 575.97 905.751C568.74 904.437 563.751 900.185 560.962 892.96C558.72 887.152 558.43 875.365 560.333 867.332C561.126 863.986 561.966 858.986 562.2 856.22C562.733 849.907 561.955 849.701 556.769 854.782C552.881 858.591 549.957 864.44 547.558 873.21C545.781 879.702 546.003 891.873 548.003 897.693C551.211 907.026 559.457 916.572 567.603 920.384C575.671 924.16 590.573 926.088 606.19 925.378C616.627 924.904 627.59 925.699 635.543 927.509C659.319 932.919 663.072 933.512 673.55 933.515C684.767 933.518 690.476 932.418 698.198 928.765C706.683 924.751 713.64 914.643 714.88 904.532C715.792 897.077 713.717 882.238 709.092 863.159C707.356 855.998 706.419 849.707 705.374 838.198C704.606 829.735 703.593 819.119 703.124 814.605C701.304 797.095 702.303 736.298 705.033 698.351C706.592 676.691 707.778 670.716 715.056 647.831C720.332 631.242 720.584 626.358 716.028 629.037ZM448.15 666.85C447.987 667.014 444.923 667.619 441.341 668.196C429.922 670.033 421.7 672.59 411.59 677.447C400.959 682.554 394.742 686.517 384.768 694.539C373.142 703.891 370.247 708.154 373.388 711.295C375.539 713.446 378.122 712.621 383.051 708.207C389.301 702.612 400.878 695.017 411.345 689.647C418.759 685.842 420.623 685.171 424.871 684.776C430.647 684.239 432.347 684.884 436.093 689.032C440.956 694.414 441.168 700.575 436.639 704.883C433.078 708.272 429.608 709.753 424.985 709.86C421.623 709.937 420.51 709.616 417.382 707.672C413.164 705.05 409.874 704.271 408.782 705.635C408.045 706.558 407.452 708.978 406.725 714.04C405.971 719.285 409.949 723.395 421.232 729.031C428.568 732.696 434.571 733.78 442.207 732.823C456.88 730.983 467.607 723.952 473.668 712.203C478.445 702.943 478.091 691.172 472.789 682.968C471.312 680.684 470.104 678.518 470.104 678.154C470.104 676.308 484.356 678.603 494.177 682.031C502.174 684.822 512.064 690.097 523.444 697.642C534.766 705.147 537.799 706.899 539.481 706.899C542.695 706.899 538.027 698.184 531.585 692.158C522.074 683.262 504.117 673.954 488.855 670.008C480.601 667.874 468.844 666.552 458.123 666.552C452.802 666.552 448.315 666.686 448.15 666.85ZM808.268 693.662C796.681 695.476 780.456 700.804 773.364 705.122C762.24 711.896 747.112 725.968 745.942 730.631C745.181 733.663 747.633 736.141 750.646 735.385C751.604 735.144 755.114 732.453 758.445 729.404C769.946 718.879 785.049 710.318 792.118 710.318C794.467 710.318 795.174 710.724 797.578 713.454C800.535 716.814 801.643 720.707 800.817 724.836C799.481 731.517 794.294 733.425 781.564 731.917C777.01 731.378 776.635 731.44 774.777 733.038C773.11 734.472 772.765 735.355 772.514 738.827C772.174 743.531 773.144 745.985 776.639 749.256C783.911 756.062 799.202 759.787 809.323 757.219C817.017 755.266 824.063 749.336 827.672 741.775C829.314 738.336 829.468 737.282 829.468 729.466C829.468 719.922 828.657 716.555 824.566 709.115C823.273 706.761 822.427 704.491 822.687 704.07C822.996 703.571 824.499 703.445 827.015 703.707C832.951 704.328 854.302 709.893 858.66 711.955C863.025 714.021 871.33 719.312 876.995 723.636C887.601 731.731 892.847 732.339 889.326 725.066C887.36 721.005 881.704 715.878 871.742 709.126C860.112 701.243 853.719 698.129 846.792 696.971C843.657 696.447 838.939 695.52 836.306 694.912C831.601 693.824 812.634 692.979 808.268 693.662ZM457.437 1025.16C455.95 1027.43 456.721 1029.85 459.827 1032.65C462.284 1034.87 468.88 1037.88 471.291 1037.88C474.07 1037.88 485.022 1041.83 495.192 1046.5C515.862 1055.98 543.929 1063.88 569.111 1067.3C579.433 1068.7 585.306 1069.66 590.12 1070.72C597.432 1072.33 600.449 1072.85 609.952 1074.13C615.593 1074.89 622.363 1075.82 624.996 1076.2C630.684 1077.03 659.873 1076.97 671.498 1076.12C679.298 1075.54 682.703 1074.9 699.029 1070.93C712.825 1067.58 731.702 1060.85 734.367 1058.33C735.647 1057.12 735.648 1057.07 734.419 1056.6C732.896 1056.01 726.402 1056.97 715.265 1059.43C695.873 1063.7 683.336 1065.33 666.68 1065.72C650.408 1066.11 642.013 1065.64 621.235 1063.17C588.248 1059.25 580.776 1058.13 561.398 1054.22C525.077 1046.88 507.574 1042.38 491.499 1036.25C488.055 1034.93 484.063 1033.65 482.629 1033.4C481.194 1033.15 477.886 1031.54 475.279 1029.82C466.126 1023.77 459.483 1022.04 457.437 1025.16ZM695.091 1110.38C692.27 1111.04 685.654 1112.6 680.388 1113.85L670.814 1116.11L647.334 1116.37C632.422 1116.54 620.942 1116.34 615.876 1115.84C601.483 1114.39 596.706 1114.23 595.593 1115.16C593.989 1116.49 594.315 1116.93 598.066 1118.55C609.749 1123.57 630.262 1125.19 655.77 1123.09C670.166 1121.9 675.246 1121.19 681.414 1119.51C697.783 1115.03 700.326 1114.1 703.105 1111.56C706.163 1108.76 703.567 1108.38 695.091 1110.38Z" fill="black"/>
</svg>
