<svg width="1000" height="1024" viewBox="0 0 1000 1024" fill="none" xmlns="http://www.w3.org/2000/svg">
<path fill-rule="evenodd" clip-rule="evenodd" d="M481.064 1.07404C477.071 2.37302 476.104 2.86626 473.124 5.12652C471.624 6.26436 469.952 7.05609 468.453 7.34054C467.168 7.5839 463.595 8.52508 460.512 9.43171C451.683 12.0287 446.149 13.0064 441.947 12.7116C438.677 12.4823 438.169 12.565 436.672 13.5701C435.708 14.2166 433.566 16.8491 431.552 19.8595C427.603 25.7636 424.731 28.6539 422.118 29.3578C420.028 29.9202 416.209 29.4237 413.363 28.2191C406.658 25.3815 402.124 29.4928 397.138 42.931C394.817 49.1873 394.038 49.9514 390.321 49.6147C386.528 49.2704 382.761 50.405 381.07 52.4013C379.332 54.4514 376.62 60.4124 374.85 66.074C373.044 71.8538 371.309 75.0529 369.223 76.4537C366.955 77.9769 365.713 78.1834 362.894 77.507C359.041 76.5827 357.32 77.1324 354.252 80.268C350.129 84.4802 345.987 93.6829 343.871 103.331C342.908 107.72 342.825 109.293 342.826 123.048C342.828 143.438 344.653 164.137 348.38 186.055C348.997 189.679 349.952 195.902 350.505 199.884C352.406 213.591 353.328 219.511 354.014 222.422C355.184 227.385 355.277 227.228 350.862 227.773C345.298 228.461 340.341 230.676 336.658 234.121C332.347 238.154 327.914 245.568 326.526 251.068C324.1 260.683 323.716 276.394 325.707 284.661C328.727 297.209 333.679 310.086 341.694 326.232C350.779 344.536 358.79 354.43 368.696 359.584C374.67 362.693 379.885 363.085 383.525 360.7C385.326 359.52 384.778 359.162 381.169 359.162C378.163 359.162 377.323 358.956 374.513 357.529C365.315 352.858 355.416 341.406 348.27 327.167C338.417 307.533 333.036 293.517 329.968 279.497C327.23 266.987 330.115 251.645 337.212 240.969C340.482 236.051 342.334 234.902 348.805 233.775C353.085 233.029 356.687 233.504 360.884 235.367C364.072 236.782 365.561 238.215 367.813 242.033C368.913 243.899 371.118 247.317 372.714 249.629C374.309 251.941 377.724 258.142 380.303 263.409C384.492 271.966 386.228 276.086 389.104 284.298C390.472 288.204 391.092 288.767 394.283 288.998C396.352 289.148 397.235 289.018 397.768 288.485C398.933 287.32 399.961 279.405 401.185 262.167C402.301 246.463 404.801 233.38 407.985 226.585C412.391 217.183 416.83 210.674 425.871 200.355C434.86 190.095 437.152 186.769 439.109 181.144C441.142 175.297 441.609 171.687 442.063 158.313C442.5 145.462 443.2 139.644 444.447 138.498C445.051 137.943 450.594 136.299 454.088 135.638C454.922 135.481 456.361 135.602 457.284 135.907C459.69 136.701 460.253 138.333 459.938 143.603C459.721 147.252 459.817 148.085 460.641 149.7C461.565 151.513 462.449 152.207 465.001 153.129C465.942 153.469 466.286 153.984 466.511 155.394C467.07 158.891 470.982 162.891 474.875 163.946L476.627 164.421L476.63 167.089C476.634 171.975 478.068 175.032 481.631 177.75C486.782 181.678 492.878 179.368 496.267 172.203C498.871 166.696 498.667 163.638 495.473 160.278C493.698 158.41 493.423 157.869 493.642 156.678C494.252 153.372 494.475 149.878 494.177 148.289C493.792 146.239 491.351 143.405 488.562 141.77C486.464 140.541 485.82 139.627 486.253 138.498C486.671 137.409 487.768 137.255 491.037 137.824C493.485 138.25 494.577 138.732 496.241 140.117C497.399 141.081 500.343 142.86 502.784 144.069C509.708 147.499 509.947 147.883 508.613 153.408C506.475 162.265 509.729 167.754 519.116 171.126C521.034 171.815 522.873 172.602 523.203 172.876C523.588 173.196 523.804 174.567 523.808 176.703C523.811 179.209 524.082 180.61 524.904 182.368C527.661 188.261 535.201 191.861 540.618 189.871C542.043 189.347 542.244 189.08 542.183 187.792C542.144 186.98 541.597 185.637 540.968 184.809C537.923 180.803 537.499 177.531 539.477 173.283C541.887 168.106 541.238 164.737 537.416 162.597C534.374 160.893 534.284 160.434 535.73 154.04C536.582 150.267 536.897 147.854 536.698 146.61C536.347 144.413 536.477 144.384 540.738 145.701C547.442 147.771 548.954 151.313 546.463 159.113C545.824 161.113 545.298 163.349 545.295 164.08C545.28 167.498 548.436 169.701 555.783 171.398C558.087 171.93 560.319 172.679 560.743 173.063C562.05 174.245 562.174 177.528 561.116 182.965C559.918 189.125 560.107 192.817 561.796 196.27C563.382 199.512 566.412 202.536 569.578 204.037C571.827 205.103 572.734 205.254 576.852 205.244C581.196 205.232 581.789 205.116 584.559 203.737C586.324 202.859 589.005 200.875 591.064 198.924C592.991 197.099 595.389 195.181 596.394 194.661C597.398 194.142 599.752 192.267 601.624 190.495C604.293 187.968 605.334 187.273 606.443 187.273C608.258 187.273 608.625 187.861 611.62 195.578C615.093 204.524 617.611 207.355 622.095 207.357C625.983 207.358 629.42 204.692 631.576 200.001C632.197 198.652 632.864 197.549 633.06 197.549C633.256 197.549 634.552 199.467 635.939 201.811C638.915 206.838 640.693 208.292 643.862 208.292C649.997 208.292 656.457 201.235 656.457 194.533C656.457 190.032 657.291 189.984 661.771 194.225C663.64 195.993 665.888 197.822 666.768 198.288C669.013 199.478 672.988 199.408 675.374 198.138C678.462 196.494 684.856 190.526 686.514 187.741C687.355 186.328 688.392 185.105 688.818 185.023C689.245 184.941 691.386 185.555 693.577 186.387L697.561 187.9V189.624C697.561 190.573 697.364 192.385 697.124 193.651C695.858 200.329 693.886 219.281 692.829 234.916C692.526 239.412 692.21 243.173 692.128 243.274C692.045 243.375 690.546 242.107 688.797 240.456C685.222 237.085 680.214 233.607 676.474 231.898C671.839 229.782 668.962 229.311 660.667 229.311C649.908 229.311 644.118 230.111 631.812 233.297C625.726 234.873 624.943 235.891 625.675 241.285C625.912 243.025 626.346 244.227 626.887 244.638C628.104 245.559 632.413 245.053 637.773 243.36C643.094 241.678 647.331 241.124 660.894 240.339C671.007 239.753 671.239 239.761 675.464 240.799C677.826 241.38 680.748 242.293 681.958 242.828C683.974 243.72 690.79 248.528 691.599 249.629C692.667 251.084 691.172 263.962 689.175 270.502C688.68 272.124 687.745 275.553 687.097 278.122C686.45 280.691 685.48 284.054 684.943 285.595C684.405 287.137 683.431 291.446 682.778 295.171C681.646 301.631 681.583 302.935 681.416 323.43C681.162 354.432 680.084 367.251 676.587 380.879C674.559 388.781 670.048 399.946 664.981 409.608C659.816 419.457 657.706 422.433 642.454 441.37C632.511 453.716 630.052 456.56 619.956 467.396C609.344 478.785 603.162 484.282 596.804 487.984C593.067 490.159 579.418 495.495 574.949 496.528C569.619 497.76 556.637 498.231 548.988 497.471C535.051 496.085 535.768 496.229 531.154 493.884C522.504 489.487 510.281 482.221 501.383 476.186C496.373 472.788 488.491 467.633 483.867 464.731C466.286 453.695 447.786 440.973 438.792 433.735C434.184 430.027 425.735 421.772 422.942 418.249C420.577 415.268 416.627 408.733 415.319 405.638C413.146 400.498 409.265 389.414 407.304 382.75C406.095 378.64 404.927 374.752 404.707 374.109C404.488 373.467 403.644 370.419 402.83 367.336C402.018 364.254 400.65 359.419 399.792 356.593C398.934 353.767 397.468 347.806 396.535 343.345C394.709 334.615 391.268 322.087 389.76 318.677C389.213 317.443 388.585 316.656 388.238 316.773C387.365 317.066 387.503 322.564 388.707 335.341C390.223 351.444 390.614 355.874 391.156 363.133C392.03 374.835 394.538 386.625 398.856 399.332C401.991 408.554 402.003 408.674 400.958 419.534C399.798 431.584 399.384 434.553 397.399 445.094C395.182 456.86 393.962 461.815 391.131 470.564C387.995 480.253 384.164 491.001 383.654 491.536C383.434 491.768 381.615 492.032 379.612 492.124C372.135 492.466 368.564 493.571 363.019 497.258C355.671 502.143 350.4 508.159 340.119 523.402C327.542 542.046 323.867 546.397 316.394 551.479C312.437 554.17 309.984 556.577 306.746 560.946C304.788 563.586 303.917 564.291 300.062 566.354C297.624 567.659 293.001 570.166 289.79 571.925C286.579 573.684 281.795 576.219 279.159 577.557C276.523 578.895 274.075 580.232 273.719 580.528C273.362 580.823 267.952 583.766 261.696 587.067C255.44 590.368 248.324 594.167 245.883 595.51C236.853 600.478 200.619 618.865 199.86 618.865C199.711 618.865 196.186 620.468 192.025 622.426C178.522 628.784 177.54 629.243 170.915 632.291C167.319 633.946 163.01 635.88 161.34 636.588C157.048 638.407 147.9 642.654 139.103 646.91C120.444 655.938 102.452 667.429 91.235 677.482C89.7992 678.768 85.4833 682.604 81.6438 686.005C77.8038 689.405 72.4626 694.637 69.774 697.629C60.6704 707.76 50.0469 721.64 44.368 730.821C42.3319 734.113 38.7681 739.854 36.4485 743.579C25.1411 761.736 20.6771 778.731 17.0006 817.613C16.7087 820.696 16.1776 826.055 15.8194 829.524C14.4386 842.9 14.1953 845.531 13.2695 857.082C12.7445 863.633 11.8986 873.197 11.3895 878.335C10.4226 888.096 9.38237 900.4 8.58551 911.498C8.32721 915.095 7.89562 920.139 7.62564 922.708C6.8825 929.79 6.31264 936.472 5.81332 943.961C5.34856 950.935 4.63579 959.914 3.03227 978.993C1.11159 1001.84 -0.295289 1022.86 0.053161 1023.48C0.160592 1023.68 1.29234 1023.83 2.56797 1023.83C5.28784 1023.83 5.40368 1023.66 6.21362 1018.22C6.49994 1016.3 7.0399 1012.94 7.4131 1010.76C8.55374 1004.08 9.36884 998.186 11.1597 983.664C11.524 980.709 12.2386 975.034 12.7478 971.052C14.072 960.697 15.4648 947.455 16.3103 937.188C16.712 932.307 17.138 927.683 17.2566 926.912C17.3757 926.141 17.8918 919.731 18.4042 912.666C19.4701 897.97 19.8065 894.029 21.6706 874.364C23.0369 859.952 23.2989 857.019 24.951 837.698C27.1496 811.976 27.9208 803.899 28.9638 795.659C33.7048 758.207 39.5845 744.81 62.1058 720.149C66.5959 715.231 68.7339 713.218 69.463 713.219C71.1581 713.221 79.0636 715.457 83.8027 717.276C86.2432 718.212 94.6205 722.214 102.419 726.17C110.217 730.125 116.694 733.263 116.814 733.144C116.933 733.024 115.597 731.786 113.846 730.391C100.949 720.126 86.7869 712.39 76.7963 710.154C74.8696 709.723 73.1347 709.277 72.9414 709.163C72.2519 708.759 73.578 707.146 74.6 707.146C76.2166 707.146 103.584 720.882 108.559 724.189C113.447 727.44 123.717 737.596 128.378 743.79C129.792 745.668 132.767 749.174 134.99 751.581C140.218 757.241 141.647 759.039 143.853 762.729C146.493 767.148 155.742 779.31 161.778 786.301C164.908 789.926 168.243 794.424 170.09 797.511C171.786 800.346 175.001 805.293 177.235 808.504C179.469 811.716 182.15 815.814 183.194 817.613C186.124 822.661 186.878 823.235 184.42 818.547C183.208 816.235 180.385 811.506 178.147 808.037C175.909 804.569 172.767 799.391 171.165 796.53C169.528 793.607 166.225 788.83 163.629 785.629C158.21 778.949 149.583 766.761 145.655 760.24C143.878 757.289 141.155 753.784 138.037 750.431C135.367 747.561 132.009 743.637 130.573 741.71C129.139 739.784 126.772 736.726 125.315 734.916C123.859 733.106 121.673 729.988 120.46 727.989C115.691 720.135 105.855 714.237 84.7369 706.566C81.2687 705.307 78.2209 704.06 77.964 703.796C77.042 702.848 93.4972 687.984 105.797 678.653C117.708 669.617 129.372 662.786 145.225 655.562C149.593 653.572 155.583 650.827 158.537 649.461C161.492 648.096 165.59 646.248 167.646 645.354C171.158 643.826 180.034 639.84 191.234 634.759C223.966 619.91 274.508 593.548 290.958 582.745C294.298 580.552 297.923 578.095 299.015 577.285C300.43 576.235 301.054 575.992 301.19 576.437C301.295 576.78 301.611 580.739 301.892 585.235C302.474 594.533 302.856 596.254 305.779 602.751C308.628 609.083 309.338 612.203 309.937 621.009C310.364 627.293 310.322 629.805 309.68 636.342C308.875 644.538 308.995 646.876 310.272 647.938C311.482 648.946 319.577 651.919 323.187 652.683C330.726 654.278 334.978 654.598 348.644 654.598C361.699 654.598 366.743 654.312 382.508 652.684C398.646 651.016 409.295 648.254 428.283 640.811C435.596 637.944 453.07 632.609 456.775 632.112C460.15 631.659 468.15 635.309 474.671 640.278C479.793 644.18 494.376 663.225 494.376 666.011C494.376 666.502 493.555 668.444 492.551 670.326C490.057 675.002 488.077 681.076 486.866 687.761C485.887 693.164 485.872 693.737 486.441 703.642C487.563 723.142 487.759 727.525 488.261 744.279C489.023 769.772 489.702 785.015 490.464 793.791C490.844 798.158 491.455 809.929 491.822 819.948C492.189 829.967 492.722 839.846 493.007 841.902C493.291 843.957 493.873 849.416 494.3 854.032C495.051 862.146 495.116 862.448 496.245 863.057C497.799 863.895 514.07 863.505 530.109 862.244C542.849 861.243 544.657 860.99 544.973 860.164C545.209 859.551 544.198 836.416 543.46 825.553C543.199 821.7 542.867 814.974 542.723 810.606C542.58 806.239 542.255 800.669 542.003 798.228C538.408 763.418 537.492 747.514 537.071 712.517C536.84 693.304 536.922 687.59 537.536 680.293C537.947 675.414 538.283 669.813 538.283 667.845C538.283 664.778 538.481 663.89 539.678 661.616C544.311 652.809 549.882 646.39 556.97 641.693C562.387 638.105 563.296 637.864 569.159 638.466C575.075 639.073 580.19 640.254 587.795 642.77C598.435 646.289 604.176 649.142 614.983 656.278C626.373 663.798 644.429 680.334 654.212 692.203L655.937 694.296L657.156 691.634C657.97 689.855 658.911 685.93 659.991 679.81C661.456 671.508 663.89 661.299 667.616 647.825C670.6 637.033 675.617 617.367 676.79 611.859C679.903 597.255 681.418 590.621 684.554 577.878C686.403 570.363 688.085 564.216 688.293 564.216C688.5 564.216 693.351 567.009 699.071 570.423C715.298 580.107 717.752 581.523 727.221 586.658C736.197 591.525 743.218 595.494 762.72 606.722C782.44 618.075 800.381 628.003 819.705 638.257C830.238 643.845 841.589 649.937 844.928 651.793C848.268 653.649 854.364 657.012 858.474 659.266C882.746 672.576 899.414 683.906 913.242 696.495C926.172 708.265 933.452 718.097 940.321 733.069C948.787 751.521 952.287 767.307 960.566 824.386C961.591 831.45 963.044 840.909 963.794 845.405C964.545 849.9 965.696 857.203 966.352 861.634C968.135 873.681 971.315 891.16 974.508 906.467C978.811 927.086 985.063 956.244 987.602 967.528C989.107 974.219 991.423 984.948 992.749 991.371C994.074 997.793 995.65 1005.04 996.251 1007.49C996.852 1009.93 997.481 1012.53 997.648 1013.28C997.826 1014.06 998.125 1014.45 998.365 1014.21C998.959 1013.61 999.86 1001.04 999.936 992.305L1000 984.831L996.623 968.483C987.781 925.673 981.761 890.935 977.357 857.316C974.641 836.585 966.8 789.798 963.834 776.632C958.931 754.868 954.803 742.411 947.824 728.316C941.585 715.718 938.463 711.47 925.984 698.602C905.386 677.362 887.708 665.382 837.922 638.924C831.756 635.647 824.82 631.936 822.508 630.676C820.196 629.416 813.26 625.689 807.094 622.391C783.224 609.628 763.573 598.876 751.977 592.236C747.61 589.735 738.361 584.641 731.425 580.916C724.489 577.191 718.078 573.719 717.179 573.201C712.461 570.481 700.859 564.019 696.043 561.429C690.749 558.582 690.538 558.409 690.085 556.559C689.296 553.335 687.926 551.118 683.428 545.79C674.586 535.317 663.16 526.685 648.766 519.606C643.192 516.865 638.71 515.517 632.363 514.672C627.57 514.035 625.658 514.327 624.284 515.908C622.814 517.598 621.33 517.278 620.867 515.171C620.216 512.208 619.888 499.207 620.241 490.361L620.587 481.667L630.017 472.145C642.34 459.701 650.544 449.398 662.653 431.155C674.605 413.149 680.292 403.123 684.685 392.311C687.347 385.762 691.508 369.143 693.569 356.827C695.637 344.478 696.168 337.418 696.343 319.927C696.531 301.305 697.001 297.133 700.03 287.23C705.443 269.53 706.3 264.789 707.165 247.761C707.912 233.04 708.536 222.95 709.229 214.364C710.594 197.473 710.853 192.886 710.862 185.404C710.868 180.909 710.771 175.554 710.647 173.506L710.421 169.782L712.968 168.36C716.805 166.216 718.24 163.618 718.491 158.359C718.722 153.533 718.082 151.896 714.36 147.786C713.085 146.377 712.041 144.814 712.041 144.311C712.041 143.808 712.976 142.344 714.119 141.057C716.823 138.012 717.166 136.254 715.845 132.194C714.154 126.999 711.473 123.488 700.483 112.077C694.768 106.144 689.763 100.655 689.362 99.8784C688.749 98.6924 688.718 98.0535 689.169 95.8791C689.917 92.2783 689.445 90.4128 687.158 87.9321C684.75 85.3196 682.467 84.1561 675.496 81.986C672.413 81.0266 669.631 79.871 669.143 79.3469C667.9 78.0129 667.2 75.293 667.2 71.7992C667.2 69.4296 666.971 68.4291 666.148 67.2077C664.242 64.3804 662.599 63.7937 655.777 63.5041C650.244 63.2696 649.542 63.1398 648.136 62.0921C646.236 60.6754 645.04 58.7804 644.307 56.0227C642.483 49.1686 639.159 46.8355 627.964 44.5528C620.879 43.1076 617.032 41.746 615.387 40.1005C614.134 38.8482 614.044 38.5152 614.099 35.359C614.149 32.5257 613.954 31.5742 612.925 29.6017C609.379 22.8111 605.498 20.052 599.497 20.0566C594.66 20.0599 593.115 20.5873 588.19 23.9148C584.291 26.5492 583.718 26.7935 581.438 26.7935C578.161 26.7935 576.813 25.5165 573.7 19.4662C571.175 14.5562 568.195 11.0623 565.613 9.98334C562.492 8.67922 560.209 9.08232 554.769 11.897C547.166 15.8309 544.053 16.2933 543.053 13.6374C542.786 12.9274 542.324 11.2959 542.025 10.0114C541.317 6.9678 539.876 5.1382 537.062 3.7131C535.173 2.7565 534.12 2.56033 530.953 2.57481C527.424 2.59116 526.823 2.74249 523.246 4.51978C521.112 5.58008 518.21 7.43863 516.797 8.65026C513.834 11.1903 511.905 12.1133 509.557 12.1133C505.97 12.1133 502.687 9.96185 498.757 5.03543C495.378 0.80125 493.685 -0.0142921 488.304 0.000187768C485.465 0.00766123 483.402 0.313611 481.064 1.07404ZM398.257 103.091L399.32 104.153L397.687 103.791C396.025 103.423 393.849 103.402 387.179 103.687C384.31 103.809 383.089 103.659 381.924 103.042C381.089 102.6 380.406 102.191 380.406 102.133C380.406 102.076 384.183 102.028 388.8 102.028C396.909 102.028 397.23 102.064 398.257 103.091ZM476.86 215.755C470.75 216.631 466.145 218.855 458.456 224.644C452.74 228.947 450.646 231.148 451.112 232.363C451.44 233.218 452.038 233.226 453.646 232.398C455.96 231.207 466.99 227.345 471.956 225.987C480.191 223.735 487.358 224.25 505.119 228.373C508.587 229.178 514.984 230.559 519.334 231.443C523.684 232.327 528.788 233.583 530.677 234.235C533.48 235.203 534.815 235.396 537.948 235.285L541.786 235.15L542.698 233.281C543.2 232.254 543.698 230.207 543.805 228.733C543.986 226.238 543.902 225.962 542.591 224.738C539.617 221.959 522.14 217.526 509.071 216.234C502.635 215.598 480.273 215.265 476.86 215.755ZM607.045 247.869C606.299 248.136 603.429 253.82 601.151 259.54C598.112 267.171 596.84 274.935 595.273 295.404C593.72 315.685 594.033 323.408 596.882 335.107C598.174 340.412 598.533 342.98 598.781 348.712C599.134 356.821 598.816 358.014 595.94 359.378C592.971 360.787 588.481 360.531 580.555 358.501C572.75 356.503 568.108 356.206 557.2 357.003C550.719 357.477 549.009 357.044 547.031 354.424C544.755 351.409 544.264 347.086 545.555 341.414C545.957 339.644 546.22 337.509 546.138 336.67L545.99 335.146L544.071 336.995C541.446 339.525 539.948 343.959 539.962 349.165C539.974 354.007 541.387 357.13 545.103 360.525C548.821 363.923 550.492 364.325 562.805 364.777C571.278 365.088 573.983 365.365 578.219 366.355C588.788 368.824 592.705 368.866 598.829 366.574C603.342 364.886 606.487 360.023 606.471 354.759C606.464 352.24 605.113 344.192 603.937 339.651C603.547 338.147 602.78 332.201 602.231 326.437C601.353 317.199 601.267 314.102 601.512 300.309C601.978 273.951 602.7 267.169 606.229 256.018C607.394 252.338 608.347 249.04 608.347 248.689C608.347 247.903 607.841 247.584 607.045 247.869ZM497.412 263.629C488.779 265.224 480.211 269.741 473.509 276.233C470.826 278.831 470.631 279.299 471.755 280.424C472.796 281.464 473.036 281.387 475.547 279.208C480.811 274.642 489.474 269.948 492.638 269.948C494.312 269.948 494.908 270.209 496.102 271.466C497.891 273.351 498.35 274.788 497.679 276.405C496.408 279.464 491.761 280.712 488.666 278.824C486.306 277.386 485.686 277.595 485.072 280.034C484.298 283.109 485.269 284.56 489.717 286.972C493.022 288.764 493.421 288.865 497.19 288.864C500.746 288.864 501.505 288.7 504.289 287.329C508.235 285.386 510.935 282.419 511.958 278.898C512.95 275.488 512.575 271.841 510.986 269.44C510.328 268.446 509.79 267.523 509.79 267.389C509.79 266.921 512.85 267.165 515.847 267.871C519.93 268.833 526.337 271.961 531.921 275.718C534.459 277.426 536.706 278.823 536.915 278.823C537.822 278.823 537.808 277.752 536.881 276.253C533.528 270.827 522.684 264.872 513.527 263.428C509.458 262.785 501.439 262.886 497.412 263.629ZM641.262 273.905C632.419 275.83 627.476 278.428 621.734 284.17C619.195 286.709 618.599 287.578 618.713 288.567C618.96 290.693 620.476 290.357 623.726 287.458C629.375 282.417 635.739 279.135 637.763 280.218C639.261 281.02 640.109 282.663 640.109 284.765C640.109 287.718 638.831 288.764 635.204 288.781C634.947 288.782 633.93 288.654 632.942 288.496C631.446 288.257 630.96 288.396 630.023 289.333C627.586 291.77 629.447 295.468 634.15 297.532C636.016 298.351 637.511 298.617 640.375 298.642C643.783 298.671 644.363 298.539 646.435 297.261C647.859 296.381 649.26 294.982 650.139 293.559C651.411 291.501 651.552 290.894 651.541 287.499C651.532 284.25 651.325 283.29 650.048 280.574L648.565 277.421L650.059 277.424C651.969 277.428 661.547 279.938 663.562 280.962C664.407 281.392 666.675 282.84 668.601 284.181C670.528 285.522 672.792 286.974 673.631 287.408C674.973 288.102 675.19 288.112 675.428 287.492C676.152 285.605 671.506 281.308 664.164 277.072C661.424 275.492 659.982 275.027 655.267 274.202C648.911 273.09 645.351 273.015 641.262 273.905ZM505.003 403.806C504.372 404.44 504.634 406.178 505.47 406.907C506.796 408.064 508.237 408.68 511.8 409.614C513.649 410.099 517.159 411.427 519.599 412.565C527.488 416.246 539.349 419.536 550.194 421.053C553.276 421.484 557.06 422.123 558.601 422.474C565.341 424.005 573.805 424.665 583.357 424.404C591.663 424.176 593.32 423.993 598.304 422.749C604.701 421.152 612.342 418.542 613.982 417.393L615.094 416.615H613.23C612.204 416.615 609.075 417.132 606.275 417.765C597.502 419.747 589.831 420.514 581.956 420.196C568.762 419.663 545.657 416.14 530.576 412.361C526.471 411.333 514.174 407.398 513.06 406.757C512.675 406.535 511.482 405.814 510.41 405.154C508.364 403.897 505.598 403.207 505.003 403.806ZM409.853 423.738C411.777 426.878 416.835 433.407 419.86 436.653C425.362 442.557 439.433 453.34 456.332 464.602C470.843 474.272 488.564 485.409 497.179 490.271C505.181 494.788 519.46 501.892 524.278 503.754C529.154 505.639 537.748 507.929 542.585 508.633C547.785 509.39 565.73 509.446 570.279 508.719C583.345 506.633 589.54 504.624 595.539 500.531C601.756 496.289 609.606 490.628 612.721 488.139C614.448 486.76 615.965 485.733 616.091 485.86C616.218 485.986 615.962 487.746 615.525 489.77C614.91 492.617 614.736 495.676 614.762 503.26C614.797 514.157 615.592 521.424 617.509 528.389C618.159 530.753 618.8 533.229 618.932 533.891C619.699 537.734 605.267 560.669 590.446 579.162C585.967 584.751 565.819 605.286 561.217 608.952C560.035 609.894 556.972 612.457 554.409 614.648C546.719 621.223 537.995 627.938 530.595 632.978C520.33 639.968 512.732 646.182 505.218 653.731C501.547 657.419 498.438 660.436 498.309 660.436C498.18 660.436 497.48 659.123 496.753 657.517C494.716 653.015 488.997 644.696 485.317 640.881C483.492 638.989 480.422 636.379 478.495 635.081C476.568 633.783 473.856 631.691 472.467 630.432C469.268 627.532 465.972 625.311 459.893 621.959C449.486 616.22 426.145 599.588 413.729 589.064C405.754 582.305 395.895 571.868 388.49 562.347C385.321 558.272 377.716 546.656 375.189 542.029C372.653 537.386 369.663 530.847 369.663 529.944C369.663 529.571 370.807 528.095 372.205 526.663C375.101 523.696 376.523 521.721 379.805 516.105C385.893 505.688 389.483 497.878 394.498 484.142C402.739 461.569 406.183 446.016 407.302 426.307C407.459 423.545 407.759 421.286 407.969 421.286C408.179 421.286 409.027 422.389 409.853 423.738ZM595.034 438.618C587.758 440.374 578.368 440.833 567.442 439.966C561.691 439.51 559.594 439.49 559.199 439.885C557.91 441.174 567.084 443.239 574.103 443.239C586.402 443.239 601.377 440.311 602.171 437.75C602.421 436.946 601.504 437.057 595.034 438.618ZM380.199 499.334C380.539 499.883 368.783 524.046 368.176 524.046C367.417 524.046 367.201 521.37 367.492 515.605C367.807 509.382 367.658 508.165 366.579 508.165C365.64 508.165 363.31 511.582 362.167 514.636C360.538 518.992 360.474 522.596 361.928 528.257C365.058 540.442 373.088 554.291 387.089 571.652C393.046 579.037 409.823 595.877 416.603 601.276C423.945 607.121 436.095 615.331 443.662 619.559C453.01 624.781 454.334 625.59 454.39 626.108C454.418 626.369 452.388 626.718 449.769 626.904C440.602 627.556 436.603 628.707 419.642 635.58C411.191 639.004 398.588 643.104 392.817 644.306C391 644.684 386.466 645.632 382.741 646.412C372.313 648.594 362.306 649.693 352.867 649.693C340.262 649.693 324.275 648.16 317.115 646.264C314.407 645.547 314.424 645.634 315.925 640.118C317.228 635.33 317.675 625.685 316.918 618.718C316.17 611.847 314.613 606.069 311.858 599.948C308.244 591.919 306.839 586.479 306.839 580.52V575.572L309.083 571.051C312.068 565.038 315.563 561.304 321.511 557.772C328.668 553.522 334.779 546.87 342.625 534.789C357.575 511.768 359.773 508.774 364.38 505.158C368.226 502.139 371.317 500.593 375.268 499.713C379.692 498.727 379.818 498.717 380.199 499.334ZM641.605 523.932C647.034 526.545 654.032 531.058 662.013 537.094C669.014 542.388 670.606 543.726 676.664 549.399C682.522 554.884 682.339 553.955 679.244 562.581C672.501 581.37 671.736 584.251 667.89 605.32C664.815 622.166 660.976 641.509 659.731 646.424C657.462 655.389 654.122 675.055 654.122 679.454C654.122 681.629 653.956 682.39 653.482 682.39C653.129 682.39 651.223 680.512 649.245 678.218C642.411 670.292 628.31 657.712 619.323 651.526C601.903 639.534 585.01 632.985 567.454 631.419C561.733 630.909 552.67 631.317 549.143 632.244C547.274 632.735 547.958 631.303 550.524 629.354C569.282 615.103 590.258 596.178 599.684 585.001C610.332 572.375 616.34 563.806 621.835 553.41C625.473 546.527 627.057 542.493 629.653 533.504C631.444 527.304 631.733 525.752 631.494 523.63L631.21 521.111L634.003 521.365C636.041 521.549 638.097 522.243 641.605 523.932ZM625.629 521.95C625.629 522.595 623.469 525.416 623.073 525.289C622.52 525.113 621.971 523.101 622.254 522.294C622.446 521.749 625.629 521.425 625.629 521.95ZM550.427 639.243C550.427 639.404 548.666 641.25 546.514 643.345C539.772 649.908 536.177 656.468 534.828 664.671C532.539 678.597 532.028 688.299 532.394 710.882C532.962 745.856 533.583 756.431 536.88 787.252C537.973 797.469 538.279 801.437 538.733 811.191C539.441 826.452 540.73 843.558 541.805 851.944C542.15 854.641 542.259 857.024 542.046 857.239C541.833 857.454 533.7 857.723 523.973 857.838C514.246 857.954 504.605 858.22 502.55 858.432C500.495 858.643 498.666 858.736 498.487 858.637C498.307 858.538 498.285 856.688 498.438 854.524C498.59 852.361 498.465 847.375 498.159 843.444C497.853 839.513 497.409 827.363 497.171 816.445C496.934 805.527 496.527 794.387 496.266 791.689C495.43 783.033 494.316 765.591 492.97 740.076C492.246 726.352 491.558 715.764 490.897 708.176C490.547 704.144 490.361 700.68 490.485 700.479C490.609 700.278 490.994 697.965 491.342 695.339C492.881 683.692 499.064 670.685 506.618 663.206C514.244 655.655 530.593 645.027 540.145 641.41C544.529 639.749 550.427 638.507 550.427 639.243ZM511.131 681.719C509.942 682.086 507.947 683.069 506.699 683.905C504.79 685.185 504.186 685.98 502.885 688.929C501.549 691.956 501.366 692.822 501.537 695.3C502.036 702.57 507.888 709.014 513.99 709.014C520.5 709.014 525.063 703.815 525.564 695.828C525.765 692.623 525.654 691.941 524.578 689.756C523.174 686.903 521.673 685.183 519.099 683.48C518.089 682.812 517.264 681.978 517.264 681.627C517.264 680.782 514.017 680.831 511.131 681.719ZM516.296 686.945C520.756 689.219 522.215 694.4 519.75 699.205C518.691 701.268 517.998 701.989 516.231 702.866C513.513 704.214 512.013 703.967 509.419 701.748C502.981 696.237 505.186 686.128 512.826 686.128C513.854 686.128 515.415 686.495 516.296 686.945ZM511.191 749.488C508.778 750.474 505.898 753.356 504.507 756.178C503.196 758.839 502.998 759.753 502.855 763.815C502.731 767.352 502.882 768.937 503.502 770.601C505.779 776.719 511.336 780.205 516.906 779.01C520.138 778.317 523.745 774.812 525.145 771.003C527.086 765.721 526.084 757.915 522.958 753.968C521.058 751.568 517.405 749.63 514.334 749.392C512.991 749.288 511.577 749.331 511.191 749.488ZM516.121 755.047C520.139 756.957 522.063 762.114 520.705 767.33C518.646 775.233 511.808 776.115 508.366 768.921C506.477 764.975 507.172 758.487 509.896 754.646C510.686 753.532 511.046 753.38 512.293 753.63C513.1 753.792 514.823 754.43 516.121 755.047ZM224.193 799.822C220.096 808.411 216.699 821.554 211.807 847.74C207.337 871.668 206.095 881.146 205.426 896.451C205.249 900.506 204.947 903.921 204.756 904.039C204.565 904.157 204.171 902.521 203.88 900.403C202.529 890.546 201.904 881.159 201.492 864.555C201.033 846.025 200.999 845.68 198.447 834.071C197.215 828.469 196.4 827.137 196.377 830.691C196.372 831.462 195.734 835.245 194.958 839.099C193.685 845.43 193.521 847.276 193.261 858.25C193.077 866.029 193.174 872.996 193.53 877.634C194.495 890.206 197.957 910.127 200.576 918.189C204.354 929.814 205.357 933.905 205.079 936.558C204.83 938.946 204.899 939.265 205.722 939.527C206.23 939.688 206.765 940.384 206.912 941.073C207.058 941.762 207.721 944.113 208.385 946.296C209.82 951.012 209.859 952.32 208.837 961.477C206.933 978.545 206.161 988.955 206.171 997.451C206.176 1002.34 205.947 1009.59 205.662 1013.57C205.376 1017.54 205.114 1021.43 205.078 1022.2C205.014 1023.57 205.06 1023.6 207.532 1023.74C208.917 1023.82 210.222 1023.72 210.432 1023.51C210.642 1023.3 211.361 1019.45 212.03 1014.95C212.699 1010.46 213.648 1004.7 214.139 1002.16C215.79 993.606 216.928 977.783 217.064 961.477L217.157 950.267L215.46 946.514C213.424 942.012 212.049 936.204 212.385 933.527C212.799 930.225 216.34 907.283 217.808 898.396C218.574 893.758 219.433 887.663 219.719 884.85C220.005 882.037 220.662 876.728 221.18 873.052C221.697 869.375 222.044 866.138 221.951 865.858C221.643 864.933 214.074 887.245 212.727 893.048L211.806 897.018L212.023 893.056C212.322 887.595 213.924 876.981 215.794 868.059C217.577 859.552 221.368 840.689 224.945 822.517C227.077 811.687 227.405 809.252 227.566 803.048C227.821 793.219 227.493 792.905 224.193 799.822ZM513.289 819.185C509.074 821.1 507.134 825.298 507.572 831.557C508.174 840.184 513.05 845.754 520.435 846.252C524.111 846.5 526.695 845.791 529.475 843.773C536.515 838.661 535.732 826.05 528.058 820.972C524.102 818.354 517.008 817.496 513.289 819.185ZM523.198 823.498C527.106 825.389 529.574 830.576 528.487 834.612C527.513 838.231 523.926 841.201 520.53 841.201C517.372 841.201 513.485 838.195 511.657 834.341C510.298 831.476 510.262 828.942 511.54 826.123C513.363 822.102 518.108 821.034 523.198 823.498ZM817.467 829.991C816.617 833.422 815.135 851.462 814.781 862.687C813.926 889.745 814.453 947.805 815.742 968.717C816.22 976.473 816.74 981.523 819.009 1000.48C819.547 1004.97 820.344 1012.02 820.78 1016.13L821.574 1023.6H825.544H829.514L830.08 1016.13C831.022 1003.7 832.048 990.451 832.777 981.328C833.526 971.958 834.94 948.511 834.847 946.997C834.779 945.865 834.401 947.162 833.079 953.069C832.562 955.381 831.397 960.321 830.49 964.046C829.584 967.771 828.192 975.548 827.398 981.328C825.39 995.952 825.525 995.191 825.073 994.383C824.858 994 824.223 989.592 823.66 984.588C822.096 970.665 822.624 962.158 826.717 935.32C828.091 926.318 830.501 908.812 831.124 903.324C831.572 899.364 832.868 888.697 834.242 877.634C835.163 870.225 835.618 856.511 834.906 857.634C834.234 858.693 831.35 872.928 830.205 880.829C829.697 884.338 828.765 890.467 828.135 894.449C826.942 901.992 824.486 919.742 823.662 926.787C823.399 929.031 823.003 931.343 822.782 931.925C822.412 932.9 822.359 932.854 822.118 931.35C821.974 930.45 821.621 916.262 821.335 899.821C820.748 866.188 820.347 855.185 819.242 842.369C818.285 831.269 817.868 828.366 817.467 829.991Z" fill="black"/>
</svg>
